<svg width="360" height="94" viewBox="0 0 360 94" fill="none" xmlns="http://www.w3.org/2000/svg">
<path d="M171.775 67.5773V92.858H-6.13184V66.1409H-1.25491V78.1429L4.44067 78.079L9.69544 78.0152V46.1031H15.6639V14.191H21.3035V0.593018H31.4912V13.4488H38.6491V43.3899L38.929 43.4936L42.2876 44.7225L43.9669 45.353L48.0042 46.8372L48.5359 47.0367L49.6695 47.4517L49.8934 47.5315L50.4601 47.739L51.8245 48.2417L52.8671 48.6327L54.2315 49.1355L54.7983 49.343L55.3301 49.5345L66.8542 53.7799V9.99348H77.9165V27.5495H98.9495V13.7042H115.435V49.0717H136.908V20.3835H144.934V4.05635H162.937V82.7234H169.445V67.5773H171.775Z" fill="url(#paint0_linear_1_5871)"/>
<path d="M18.5957 15.6592H16.6646V92.8659H18.5957V15.6592Z" fill="#E52138"/>
<path d="M21.2127 15.6592H19.2815V92.8659H21.2127V15.6592Z" fill="#E52138"/>
<path d="M24.823 2.04541H22.8918V92.858H24.823V2.04541Z" fill="#E52138"/>
<path d="M27.44 2.04541H25.5088V92.858H27.44V2.04541Z" fill="#E52138"/>
<path d="M30.0638 2.04541H28.1396V92.858H30.0638V2.04541Z" fill="#E52138"/>
<path d="M34.0171 15.6592H32.0859V92.8659H34.0171V15.6592Z" fill="#E52138"/>
<path d="M36.6409 15.6592H34.7097V92.8659H36.6409V15.6592Z" fill="#E52138"/>
<path d="M70.5555 11.3899H68.6313V92.8579H70.5555V11.3899Z" fill="#E52138"/>
<path d="M73.4874 11.3899H71.5632V92.8579H73.4874V11.3899Z" fill="#E52138"/>
<path d="M76.412 11.3899H74.4878V92.8579H76.412V11.3899Z" fill="#E52138"/>
<path d="M80.3165 29.1135H78.3923V92.8579H80.3165V29.1135Z" fill="#E52138"/>
<path d="M83.2482 29.1135H81.324V92.8579H83.2482V29.1135Z" fill="#E52138"/>
<path d="M101.951 15.0129H100.027V92.858H101.951V15.0129Z" fill="#E52138"/>
<path d="M104.967 15.0129H103.036V92.858H104.967V15.0129Z" fill="#E52138"/>
<path d="M107.976 15.0129H106.052V92.858H107.976V15.0129Z" fill="#E52138"/>
<path d="M110.984 15.0129H109.053V92.858H110.984V15.0129Z" fill="#E52138"/>
<path d="M113.993 15.0129H112.069V92.858H113.993V15.0129Z" fill="#E52138"/>
<path d="M140.022 21.5645H138.098V92.8579H140.022V21.5645Z" fill="#E52138"/>
<path d="M143.822 21.5645H141.89V92.8579H143.822V21.5645Z" fill="#E52138"/>
<path d="M148.405 5.61255H146.473V92.8661H148.405V5.61255Z" fill="#E52138"/>
<path d="M151.658 5.61255H149.727V92.8661H151.658V5.61255Z" fill="#E52138"/>
<path d="M154.912 5.61255H152.98V92.8661H154.912V5.61255Z" fill="#E52138"/>
<path d="M158.165 5.61255H156.234V92.8661H158.165V5.61255Z" fill="#E52138"/>
<path d="M161.419 5.61255H159.488V92.8661H161.419V5.61255Z" fill="#E52138"/>
<path d="M177.47 67.5773V92.858H-6.13184V66.1409H4.44067V78.1429L15.391 78.0152V38.8093L15.6569 38.8891L16.6575 39.2083L18.5887 39.8068L19.2814 40.0223L21.2125 40.6288L21.3525 40.6767L22.3531 40.9879L22.8778 41.1475L24.2842 41.5944L24.809 41.754L24.97 41.8098L25.4947 41.9694L26.9011 42.4163L27.4259 42.5759L28.1256 42.7914L28.5734 42.935L30.0498 43.4058L30.5046 43.5495L31.1973 43.7649L32.0719 44.0362L33.1355 44.3634L33.8352 44.5869L34.0101 44.6427L34.7098 44.8662L35.7664 45.1934L36.648 45.4647L37.7885 45.8238L38.936 46.1909L39.7267 46.4382L40.4264 46.6537L40.6783 46.7335V88.1658L42.3576 88.1019L43.82 88.0461V50.5719H48.0462L48.0112 46.8532L47.9902 44.7385L47.9342 38.8253H52.1604V42.3924L57.856 42.3445V32.7445H71.2553V42.52H76.0273V35.8966H81.45V50.5559H87.4674V30.7096H89.2587V26.8154H90.6441V20.3915H92.6732V15.3162H100.895V20.6069H103.784V27.374L104.666 27.382L104.988 27.3899L105.751 27.3979H105.849V30.5979H106.073L107.682 30.5899H107.724L107.682 42.4243L107.654 50.3165H107.682L108.004 50.3085L108.766 50.2926L109.074 50.2846V35.6572H111.019L111.782 35.6493H115.463L116.715 35.6413H121.158L124.524 35.6333L129.338 35.6253V24.166H143.57V82.5957H146.648V33.1196H156.626V74.0651H159.229V56.2537L159.516 56.4771L160.642 57.3629L161.447 58.0013L161.958 58.4003L162.958 59.1903L163.889 59.9245L165.211 60.9619L167.143 62.4781L167.255 62.5659V79.4995C167.255 79.4995 168.052 79.691 168.661 79.7229C169.025 79.7309 169.312 79.683 169.312 79.4995V67.5773H177.47Z" fill="url(#paint1_linear_1_5871)"/>
<path d="M11.1648 81.335H9.23364V84.2317H11.1648V81.335Z" fill="#E52138"/>
<path d="M19.3164 45.7122H17.3853V48.6089H19.3164V45.7122Z" fill="#E52138"/>
<path d="M22.6328 45.7122H20.7017V48.6089H22.6328V45.7122Z" fill="#E52138"/>
<path d="M25.9495 45.7122H24.0183V48.6089H25.9495V45.7122Z" fill="#E52138"/>
<path d="M29.2732 45.7122H27.342V48.6089H29.2732V45.7122Z" fill="#E52138"/>
<path d="M22.6328 57.7698H20.7017V60.6665H22.6328V57.7698Z" fill="#E52138"/>
<path d="M25.9495 57.7698H24.0183V60.6665H25.9495V57.7698Z" fill="#E52138"/>
<path d="M29.2732 57.7698H27.342V60.6665H29.2732V57.7698Z" fill="#E52138"/>
<path d="M25.2569 69.8276H23.3257V72.7244H25.2569V69.8276Z" fill="#E52138"/>
<path d="M28.5803 69.8276H26.6492V72.7244H28.5803V69.8276Z" fill="#E52138"/>
<path d="M37.2007 69.8276H35.2695V72.7244H37.2007V69.8276Z" fill="#E52138"/>
<path d="M25.033 73.9133H23.1018V76.8101H25.033V73.9133Z" fill="#E52138"/>
<path d="M28.3496 73.9133H26.4185V76.8101H28.3496V73.9133Z" fill="#E52138"/>
<path d="M35.8853 56.9319H33.9541V59.8286H35.8853V56.9319Z" fill="#E52138"/>
<path d="M19.3164 65.4387H17.3853V68.3355H19.3164V65.4387Z" fill="#E52138"/>
<path d="M39.3628 56.9319H37.4316V59.8286H39.3628V56.9319Z" fill="#E52138"/>
<path d="M62.2361 35.6572H60.3049V40.7565H62.2361V35.6572Z" fill="#E52138"/>
<path d="M65.2727 35.6572H63.3416V40.7565H65.2727V35.6572Z" fill="#E52138"/>
<path d="M68.3096 35.6572H66.3784V40.7565H68.3096V35.6572Z" fill="#E52138"/>
<path d="M22.6328 51.3379H20.7017V54.2346H22.6328V51.3379Z" fill="#E52138"/>
<path d="M25.9495 51.3379H24.0183V54.2346H25.9495V51.3379Z" fill="#E52138"/>
<path d="M29.2732 51.3379H27.342V54.2346H29.2732V51.3379Z" fill="#E52138"/>
<path d="M51.8245 46.6377H49.8933V49.5344H51.8245V46.6377Z" fill="#E52138"/>
<path d="M56.1626 46.6377H54.2314V49.5344H56.1626V46.6377Z" fill="#E52138"/>
<path d="M60.5008 46.6377H58.5696V49.5344H60.5008V46.6377Z" fill="#E52138"/>
<path d="M47.7034 54.873H45.7722V57.7698H47.7034V54.873Z" fill="#E52138"/>
<path d="M50.2083 54.873H48.2771V57.7698H50.2083V54.873Z" fill="#E52138"/>
<path d="M52.7132 54.873H50.782V57.7698H52.7132V54.873Z" fill="#E52138"/>
<path d="M55.218 54.873H53.2869V57.7698H55.218V54.873Z" fill="#E52138"/>
<path d="M57.7229 54.873H55.7917V57.7698H57.7229V54.873Z" fill="#E52138"/>
<path d="M60.228 54.873H58.2969V57.7698H60.228V54.873Z" fill="#E52138"/>
<path d="M78.7212 54.873H76.79V57.7698H78.7212V54.873Z" fill="#E52138"/>
<path d="M95.1082 32.7605H93.177V35.6572H95.1082V32.7605Z" fill="#E52138"/>
<path d="M97.9629 32.7605H96.0317V35.6572H97.9629V32.7605Z" fill="#E52138"/>
<path d="M91.2318 38.2109H89.3005V41.1077H91.2318V38.2109Z" fill="#E52138"/>
<path d="M94.1426 38.2109H92.2114V41.1077H94.1426V38.2109Z" fill="#E52138"/>
<path d="M97.0533 38.2109H95.1221V41.1077H97.0533V38.2109Z" fill="#E52138"/>
<path d="M99.9642 38.2109H98.033V41.1077H99.9642V38.2109Z" fill="#E52138"/>
<path d="M102.875 38.2109H100.944V41.1077H102.875V38.2109Z" fill="#E52138"/>
<path d="M95.451 44.6428H93.5198V47.5395H95.451V44.6428Z" fill="#E52138"/>
<path d="M97.697 44.6428H95.7659V47.5395H97.697V44.6428Z" fill="#E52138"/>
<path d="M90.6512 54.2346H88.72V57.1314H90.6512V54.2346Z" fill="#E52138"/>
<path d="M93.1771 54.2346H91.2458V57.1314H93.1771V54.2346Z" fill="#E52138"/>
<path d="M102.511 54.2346H100.58V57.1314H102.511V54.2346Z" fill="#E52138"/>
<path d="M105.023 54.2346H103.092V57.1314H105.023V54.2346Z" fill="#E52138"/>
<path d="M113.265 37.2053H111.334V40.1021H113.265V37.2053Z" fill="#E52138"/>
<path d="M123.81 37.2053H121.879V40.1021H123.81V37.2053Z" fill="#E52138"/>
<path d="M123.81 42.8152H121.879V45.7119H123.81V42.8152Z" fill="#E52138"/>
<path d="M123.81 48.4172H121.879V51.314H123.81V48.4172Z" fill="#E52138"/>
<path d="M120.556 48.0901H118.625V50.9868H120.556V48.0901Z" fill="#E52138"/>
<path d="M115.812 48.0901H113.881V50.9868H115.812V48.0901Z" fill="#E52138"/>
<path d="M126.903 37.2053H124.971V40.1021H126.903V37.2053Z" fill="#E52138"/>
<path d="M126.903 42.8152H124.971V45.7119H126.903V42.8152Z" fill="#E52138"/>
<path d="M137.692 26.8472H135.761V29.7439H137.692V26.8472Z" fill="#E52138"/>
<path d="M141.939 26.8472H140.008V29.7439H141.939V26.8472Z" fill="#E52138"/>
<path d="M137.692 30.8054H135.761V33.7022H137.692V30.8054Z" fill="#E52138"/>
<path d="M141.939 30.8054H140.008V33.7022H141.939V30.8054Z" fill="#E52138"/>
<path d="M149.748 35.0747H147.817V37.9714H149.748V35.0747Z" fill="#E52138"/>
<path d="M152.351 35.0747H150.42V37.9714H152.351V35.0747Z" fill="#E52138"/>
<path d="M149.965 39.6553H148.034V42.552H149.965V39.6553Z" fill="#E52138"/>
<path d="M155.611 46.103H153.68V48.9998H155.611V46.103Z" fill="#E52138"/>
<path d="M155.611 50.9868H153.68V53.8836H155.611V50.9868Z" fill="#E52138"/>
<path d="M155.611 55.8706H153.68V58.7673H155.611V55.8706Z" fill="#E52138"/>
<path d="M155.611 60.7544H153.68V63.6511H155.611V60.7544Z" fill="#E52138"/>
<path d="M162.448 60.6665H160.516V63.5632H162.448V60.6665Z" fill="#E52138"/>
<path d="M166.023 70.0352H164.092V72.9319H166.023V70.0352Z" fill="#E52138"/>
<path d="M176.211 67.9604H174.28V70.8572H176.211V67.9604Z" fill="#E52138"/>
<path d="M172.733 67.9604H170.802V70.8572H172.733V67.9604Z" fill="#E52138"/>
<path d="M137.692 38.6497H135.761V41.5464H137.692V38.6497Z" fill="#E52138"/>
<path d="M132.297 38.2109H130.366V41.1077H132.297V38.2109Z" fill="#E52138"/>
<path d="M141.939 38.6497H140.008V41.5464H141.939V38.6497Z" fill="#E52138"/>
<path d="M137.692 46.5022H135.761V49.399H137.692V46.5022Z" fill="#E52138"/>
<path d="M141.939 46.5022H140.008V49.399H141.939V46.5022Z" fill="#E52138"/>
<path d="M137.692 54.3464H135.761V57.2432H137.692V54.3464Z" fill="#E52138"/>
<path d="M141.939 54.3464H140.008V57.2432H141.939V54.3464Z" fill="#E52138"/>
<path d="M137.692 62.1909H135.761V65.0877H137.692V62.1909Z" fill="#E52138"/>
<path d="M141.939 62.1909H140.008V65.0877H141.939V62.1909Z" fill="#E52138"/>
<path d="M137.692 70.0352H135.761V72.9319H137.692V70.0352Z" fill="#E52138"/>
<path d="M141.939 70.0352H140.008V72.9319H141.939V70.0352Z" fill="#E52138"/>
<path d="M126.903 48.4172H124.971V51.314H126.903V48.4172Z" fill="#E52138"/>
<path d="M123.81 59.6372H121.879V62.534H123.81V59.6372Z" fill="#E52138"/>
<path d="M113.265 60.6665H111.334V63.5632H113.265V60.6665Z" fill="#E52138"/>
<path d="M113.265 66.1328H111.334V69.0296H113.265V66.1328Z" fill="#E52138"/>
<path d="M113.265 71.5991H111.334V74.4959H113.265V71.5991Z" fill="#E52138"/>
<path d="M113.265 77.0654H111.334V79.9622H113.265V77.0654Z" fill="#E52138"/>
<path d="M99.8101 22.147H93.6528V25.0437H99.8101V22.147Z" fill="#E52138"/>
<path d="M48.669 68.3833H46.7378V71.2801H48.669V68.3833Z" fill="#E52138"/>
<path d="M51.1739 68.6545H49.2427V71.5513H51.1739V68.6545Z" fill="#E52138"/>
<path d="M72.5218 69.0298H70.5906V71.9265H72.5218V69.0298Z" fill="#E52138"/>
<path d="M75.9993 69.0298H74.0681V71.9265H75.9993V69.0298Z" fill="#E52138"/>
<path d="M2.92239 74.073H0.991211V76.9697H2.92239V74.073Z" fill="#E52138"/>
<path d="M4.44067 66.1409H-6.13184V66.3563H4.44067V66.1409Z" fill="url(#paint2_linear_1_5871)"/>
<path d="M356.422 67.7917V93.0724H178.516V66.3553H183.393V78.3572L189.088 78.2934L194.343 78.2295V46.3174H200.311V14.4053H205.951V0.807373H216.139V13.6632H223.297V43.6042L223.576 43.708L226.935 44.9369L228.614 45.5673L232.652 47.0516L233.183 47.2511L234.317 47.6661L234.541 47.7459L235.108 47.9533L236.472 48.4561L237.515 48.8471L238.879 49.3498L239.446 49.5573L239.978 49.7488L251.502 53.9942V10.2078H262.564V27.7639H283.597V13.9185H300.082V49.286H321.556V20.5978H329.581V4.2707H347.585V82.9378H354.092V67.7917H356.422Z" fill="url(#paint3_linear_1_5871)"/>
<path d="M181.867 66.3552H179.936V93.0723H181.867V66.3552Z" fill="#E52138"/>
<path d="M203.243 15.8735H201.312V93.0802H203.243V15.8735Z" fill="#E52138"/>
<path d="M205.86 15.8735H203.929V93.0802H205.86V15.8735Z" fill="#E52138"/>
<path d="M209.47 2.25977H207.539V93.0724H209.47V2.25977Z" fill="#E52138"/>
<path d="M212.087 2.25977H210.156V93.0724H212.087V2.25977Z" fill="#E52138"/>
<path d="M214.711 2.25977H212.787V93.0724H214.711V2.25977Z" fill="#E52138"/>
<path d="M218.665 15.8735H216.733V93.0802H218.665V15.8735Z" fill="#E52138"/>
<path d="M221.288 15.8735H219.357V93.0802H221.288V15.8735Z" fill="#E52138"/>
<path d="M255.203 11.6042H253.279V93.0723H255.203V11.6042Z" fill="#E52138"/>
<path d="M258.135 11.6042H256.211V93.0723H258.135V11.6042Z" fill="#E52138"/>
<path d="M261.059 11.6042H259.135V93.0723H261.059V11.6042Z" fill="#E52138"/>
<path d="M264.964 29.3279H263.04V93.0723H264.964V29.3279Z" fill="#E52138"/>
<path d="M267.896 29.3279H265.971V93.0723H267.896V29.3279Z" fill="#E52138"/>
<path d="M286.599 15.2273H284.675V93.0724H286.599V15.2273Z" fill="#E52138"/>
<path d="M289.615 15.2273H287.683V93.0724H289.615V15.2273Z" fill="#E52138"/>
<path d="M292.623 15.2273H290.699V93.0724H292.623V15.2273Z" fill="#E52138"/>
<path d="M295.632 15.2273H293.701V93.0724H295.632V15.2273Z" fill="#E52138"/>
<path d="M298.641 15.2273H296.716V93.0724H298.641V15.2273Z" fill="#E52138"/>
<path d="M324.67 21.7788H322.745V93.0723H324.67V21.7788Z" fill="#E52138"/>
<path d="M328.469 21.7788H326.538V93.0723H328.469V21.7788Z" fill="#E52138"/>
<path d="M333.052 5.8269H331.121V93.0804H333.052V5.8269Z" fill="#E52138"/>
<path d="M336.306 5.8269H334.375V93.0804H336.306V5.8269Z" fill="#E52138"/>
<path d="M339.559 5.8269H337.628V93.0804H339.559V5.8269Z" fill="#E52138"/>
<path d="M342.813 5.8269H340.882V93.0804H342.813V5.8269Z" fill="#E52138"/>
<path d="M346.066 5.8269H344.135V93.0804H346.066V5.8269Z" fill="#E52138"/>
<path d="M362.118 65.3746V89.7436H178.516V63.99H189.088V75.5591L200.038 75.436V37.6442L200.304 37.7211L201.305 38.0288L203.236 38.6057L203.929 38.8134L205.86 39.398L206 39.4442L207.001 39.7442L207.525 39.898L208.932 40.3288L209.456 40.4826L209.617 40.5364L210.142 40.6903L211.549 41.1211L212.073 41.2749L212.773 41.4826L213.221 41.621L214.697 42.0749L215.152 42.2133L215.845 42.421L216.719 42.6826L217.783 42.998L218.483 43.2133L218.658 43.2672L219.357 43.4826L220.414 43.7979L221.295 44.0595L222.436 44.4056L223.583 44.7595L224.374 44.9979L225.074 45.2056L225.326 45.2825V85.2205L227.005 85.159L228.467 85.1051V48.9825H232.694L232.659 45.3979L232.638 43.3595L232.582 37.6596H236.808V41.098L242.503 41.0518V31.7981H255.903V41.2211H260.675V34.8365H266.097V48.9671H272.115V29.8366H273.906V26.0828H275.292V19.8905H277.321V14.9983H285.542V20.0982H288.432V26.6212L289.314 26.6289L289.635 26.6366L290.398 26.6443H290.496V29.7289H290.72L292.329 29.7212H292.371L292.329 41.1287L292.301 48.7363H292.329L292.651 48.7287L293.414 48.7133L293.722 48.7056V34.6057H295.667L296.43 34.5981H300.11L301.362 34.5904H305.806L309.171 34.5827L313.985 34.575V23.529H328.217V79.8514H331.296V32.1596H341.273V71.6284H343.876V54.4594L344.163 54.6747L345.29 55.5286L346.094 56.1439L346.605 56.5286L347.606 57.2901L348.536 57.9978L349.859 58.9978L351.79 60.4593L351.902 60.5439V76.8668C351.902 76.8668 352.7 77.0514 353.308 77.0822C353.672 77.0899 353.959 77.0437 353.959 76.8668V65.3746H362.118Z" fill="url(#paint4_linear_1_5871)"/>
<path d="M182.028 68.1729H180.097V70.9651H182.028V68.1729Z" fill="#E52138"/>
<path d="M195.812 78.6367H193.881V81.429H195.812V78.6367Z" fill="#E52138"/>
<path d="M203.963 44.2966H202.032V47.0889H203.963V44.2966Z" fill="#E52138"/>
<path d="M207.281 44.2966H205.35V47.0889H207.281V44.2966Z" fill="#E52138"/>
<path d="M210.597 44.2966H208.666V47.0889H210.597V44.2966Z" fill="#E52138"/>
<path d="M213.92 44.2966H211.989V47.0889H213.92V44.2966Z" fill="#E52138"/>
<path d="M207.281 55.9204H205.35V58.7127H207.281V55.9204Z" fill="#E52138"/>
<path d="M210.597 55.9204H208.666V58.7127H210.597V55.9204Z" fill="#E52138"/>
<path d="M213.92 55.9204H211.989V58.7127H213.92V55.9204Z" fill="#E52138"/>
<path d="M209.904 67.5439H207.973V70.3362H209.904V67.5439Z" fill="#E52138"/>
<path d="M213.228 67.5439H211.297V70.3362H213.228V67.5439Z" fill="#E52138"/>
<path d="M221.848 67.5439H219.917V70.3362H221.848V67.5439Z" fill="#E52138"/>
<path d="M209.68 71.4827H207.749V74.2749H209.68V71.4827Z" fill="#E52138"/>
<path d="M212.997 71.4827H211.065V74.2749H212.997V71.4827Z" fill="#E52138"/>
<path d="M220.533 55.1145H218.602V57.9068H220.533V55.1145Z" fill="#E52138"/>
<path d="M203.963 63.3118H202.032V66.104H203.963V63.3118Z" fill="#E52138"/>
<path d="M224.01 55.1145H222.079V57.9068H224.01V55.1145Z" fill="#E52138"/>
<path d="M246.883 34.6045H244.952V39.5198H246.883V34.6045Z" fill="#E52138"/>
<path d="M249.92 34.6045H247.989V39.5198H249.92V34.6045Z" fill="#E52138"/>
<path d="M252.957 34.6045H251.025V39.5198H252.957V34.6045Z" fill="#E52138"/>
<path d="M207.281 49.7224H205.35V52.5147H207.281V49.7224Z" fill="#E52138"/>
<path d="M210.597 49.7224H208.666V52.5147H210.597V49.7224Z" fill="#E52138"/>
<path d="M213.92 49.7224H211.989V52.5147H213.92V49.7224Z" fill="#E52138"/>
<path d="M236.472 45.189H234.541V47.9812H236.472V45.189Z" fill="#E52138"/>
<path d="M240.81 45.189H238.879V47.9812H240.81V45.189Z" fill="#E52138"/>
<path d="M245.148 45.189H243.217V47.9812H245.148V45.189Z" fill="#E52138"/>
<path d="M232.351 53.1301H230.42V55.9224H232.351V53.1301Z" fill="#E52138"/>
<path d="M234.856 53.1301H232.925V55.9224H234.856V53.1301Z" fill="#E52138"/>
<path d="M237.361 53.1301H235.43V55.9224H237.361V53.1301Z" fill="#E52138"/>
<path d="M239.866 53.1301H237.935V55.9224H239.866V53.1301Z" fill="#E52138"/>
<path d="M242.371 53.1301H240.439V55.9224H242.371V53.1301Z" fill="#E52138"/>
<path d="M244.876 53.1301H242.944V55.9224H244.876V53.1301Z" fill="#E52138"/>
<path d="M263.369 53.1301H261.438V55.9224H263.369V53.1301Z" fill="#E52138"/>
<path d="M279.755 31.8145H277.824V34.6067H279.755V31.8145Z" fill="#E52138"/>
<path d="M282.611 31.8145H280.68V34.6067H282.611V31.8145Z" fill="#E52138"/>
<path d="M275.879 37.0671H273.948V39.8594H275.879V37.0671Z" fill="#E52138"/>
<path d="M278.79 37.0671H276.858V39.8594H278.79V37.0671Z" fill="#E52138"/>
<path d="M281.701 37.0671H279.77V39.8594H281.701V37.0671Z" fill="#E52138"/>
<path d="M284.612 37.0671H282.681V39.8594H284.612V37.0671Z" fill="#E52138"/>
<path d="M287.522 37.0671H285.591V39.8594H287.522V37.0671Z" fill="#E52138"/>
<path d="M280.098 43.2688H278.167V46.061H280.098V43.2688Z" fill="#E52138"/>
<path d="M282.344 43.2688H280.413V46.061H282.344V43.2688Z" fill="#E52138"/>
<path d="M275.298 52.5127H273.367V55.305H275.298V52.5127Z" fill="#E52138"/>
<path d="M277.825 52.5127H275.894V55.305H277.825V52.5127Z" fill="#E52138"/>
<path d="M287.159 52.5127H285.228V55.305H287.159V52.5127Z" fill="#E52138"/>
<path d="M289.67 52.5127H287.739V55.305H289.67V52.5127Z" fill="#E52138"/>
<path d="M297.913 36.0994H295.981V38.8917H297.913V36.0994Z" fill="#E52138"/>
<path d="M308.457 36.0994H306.526V38.8917H308.457V36.0994Z" fill="#E52138"/>
<path d="M308.457 41.5066H306.526V44.2989H308.457V41.5066Z" fill="#E52138"/>
<path d="M308.457 46.906H306.526V49.6983H308.457V46.906Z" fill="#E52138"/>
<path d="M305.204 46.5898H303.272V49.3821H305.204V46.5898Z" fill="#E52138"/>
<path d="M300.459 46.5898H298.528V49.3821H300.459V46.5898Z" fill="#E52138"/>
<path d="M311.55 36.0994H309.619V38.8917H311.55V36.0994Z" fill="#E52138"/>
<path d="M311.55 41.5066H309.619V44.2989H311.55V41.5066Z" fill="#E52138"/>
<path d="M322.339 26.1138H320.408V28.906H322.339V26.1138Z" fill="#E52138"/>
<path d="M326.586 26.1138H324.655V28.906H326.586V26.1138Z" fill="#E52138"/>
<path d="M322.339 29.928H320.408V32.7202H322.339V29.928Z" fill="#E52138"/>
<path d="M326.586 29.928H324.655V32.7202H326.586V29.928Z" fill="#E52138"/>
<path d="M334.395 34.0435H332.464V36.8357H334.395V34.0435Z" fill="#E52138"/>
<path d="M336.999 34.0435H335.067V36.8357H336.999V34.0435Z" fill="#E52138"/>
<path d="M334.612 38.4602H332.681V41.2525H334.612V38.4602Z" fill="#E52138"/>
<path d="M340.259 44.6731H338.328V47.4654H340.259V44.6731Z" fill="#E52138"/>
<path d="M340.259 49.3835H338.328V52.1758H340.259V49.3835Z" fill="#E52138"/>
<path d="M340.259 54.0903H338.328V56.8826H340.259V54.0903Z" fill="#E52138"/>
<path d="M340.259 58.7971H338.328V61.5894H340.259V58.7971Z" fill="#E52138"/>
<path d="M347.095 58.7141H345.164V61.5064H347.095V58.7141Z" fill="#E52138"/>
<path d="M350.67 67.7437H348.739V70.5359H350.67V67.7437Z" fill="#E52138"/>
<path d="M360.858 65.7441H358.927V68.5364H360.858V65.7441Z" fill="#E52138"/>
<path d="M357.38 65.7441H355.449V68.5364H357.38V65.7441Z" fill="#E52138"/>
<path d="M322.339 37.4888H320.408V40.281H322.339V37.4888Z" fill="#E52138"/>
<path d="M316.945 37.0671H315.014V39.8594H316.945V37.0671Z" fill="#E52138"/>
<path d="M326.586 37.4888H324.655V40.281H326.586V37.4888Z" fill="#E52138"/>
<path d="M322.339 45.061H320.408V47.8533H322.339V45.061Z" fill="#E52138"/>
<path d="M326.586 45.061H324.655V47.8533H326.586V45.061Z" fill="#E52138"/>
<path d="M322.339 52.6218H320.408V55.4141H322.339V52.6218Z" fill="#E52138"/>
<path d="M326.586 52.6218H324.655V55.4141H326.586V52.6218Z" fill="#E52138"/>
<path d="M322.339 60.1826H320.408V62.9749H322.339V60.1826Z" fill="#E52138"/>
<path d="M326.586 60.1826H324.655V62.9749H326.586V60.1826Z" fill="#E52138"/>
<path d="M322.339 67.7437H320.408V70.5359H322.339V67.7437Z" fill="#E52138"/>
<path d="M326.586 67.7437H324.655V70.5359H326.586V67.7437Z" fill="#E52138"/>
<path d="M311.55 46.906H309.619V49.6983H311.55V46.906Z" fill="#E52138"/>
<path d="M308.457 57.7202H306.526V60.5125H308.457V57.7202Z" fill="#E52138"/>
<path d="M297.913 58.7141H295.981V61.5064H297.913V58.7141Z" fill="#E52138"/>
<path d="M297.913 63.9819H295.981V66.7742H297.913V63.9819Z" fill="#E52138"/>
<path d="M297.913 69.2498H295.981V72.042H297.913V69.2498Z" fill="#E52138"/>
<path d="M297.913 74.5212H295.981V77.3135H297.913V74.5212Z" fill="#E52138"/>
<path d="M284.457 21.584H278.3V24.3763H284.457V21.584Z" fill="#E52138"/>
<path d="M233.316 66.1509H231.385V68.9432H233.316V66.1509Z" fill="#E52138"/>
<path d="M235.821 66.4143H233.89V69.2066H235.821V66.4143Z" fill="#E52138"/>
<path d="M257.169 66.7759H255.238V69.5681H257.169V66.7759Z" fill="#E52138"/>
<path d="M260.647 66.7759H258.716V69.5681H260.647V66.7759Z" fill="#E52138"/>
<path d="M187.57 71.637H185.639V74.4292H187.57V71.637Z" fill="#E52138"/>
<path d="M189.088 63.9897H178.516V64.1975H189.088V63.9897Z" fill="url(#paint5_linear_1_5871)"/>
<defs>
<linearGradient id="paint0_linear_1_5871" x1="83.6033" y1="47.2128" x2="84.0727" y2="-0.147024" gradientUnits="userSpaceOnUse">
<stop stop-color="#F32940"/>
<stop offset="0.963542" stop-color="#FF7787"/>
</linearGradient>
<linearGradient id="paint1_linear_1_5871" x1="86.4762" y1="54.4966" x2="86.7974" y2="14.6929" gradientUnits="userSpaceOnUse">
<stop stop-color="#F32940"/>
<stop offset="0.963542" stop-color="#FF7787"/>
</linearGradient>
<linearGradient id="paint2_linear_1_5871" x1="-6.13184" y1="66.3563" x2="-5.67827" y2="64.1036" gradientUnits="userSpaceOnUse">
<stop stop-color="#A40C1E"/>
<stop offset="1" stop-color="#EF6575"/>
</linearGradient>
<linearGradient id="paint3_linear_1_5871" x1="268.251" y1="47.4271" x2="268.72" y2="0.0673312" gradientUnits="userSpaceOnUse">
<stop stop-color="#F32940"/>
<stop offset="0.963542" stop-color="#FF7787"/>
</linearGradient>
<linearGradient id="paint4_linear_1_5871" x1="271.124" y1="52.7657" x2="271.422" y2="14.3973" gradientUnits="userSpaceOnUse">
<stop stop-color="#F32940"/>
<stop offset="0.963542" stop-color="#FF7787"/>
</linearGradient>
<linearGradient id="paint5_linear_1_5871" x1="183.848" y1="64.0947" x2="183.848" y2="63.9881" gradientUnits="userSpaceOnUse">
<stop stop-color="#F32940"/>
<stop offset="0.963542" stop-color="#FF7787"/>
</linearGradient>
</defs>
</svg>
