<svg width="75" height="81" viewBox="0 0 75 81" fill="none" xmlns="http://www.w3.org/2000/svg">
<path fill-rule="evenodd" clip-rule="evenodd" d="M75 24.3982V60.9823C75 60.9823 75 61.9027 74.3161 63.0531C73.6322 64.2035 72.4924 64.8938 72.4924 64.8938L37.614 81L2.73556 64.8938C2.73556 64.8938 1.59574 64.2035 0.911854 63.0531C0 62.1327 0 60.9823 0 60.9823V24.3982C0 24.3982 0 22.5575 0.911854 21.177C1.82371 19.7965 5.0152 18.1858 5.0152 18.1858L37.614 3L70.2128 18.1858C70.2128 18.1858 73.4043 19.7965 74.3161 21.177C75 22.5575 75 24.3982 75 24.3982Z" fill="#DE2A29"/>
<path fill-rule="evenodd" clip-rule="evenodd" d="M12.0824 62.1328L13.9061 57.531L21.6568 61.6726L23.2526 68.8053L31.2313 72.9469L21.2009 40.9646L15.0459 37.2832L4.55957 58.2213L12.0824 62.1328Z" fill="white"/>
<path fill-rule="evenodd" clip-rule="evenodd" d="M18.0087 46.0264L20.5163 54.9998L15.957 52.6989L18.0087 46.0264Z" fill="#DE2A29"/>
<path fill-rule="evenodd" clip-rule="evenodd" d="M51.7477 42.3452L56.7629 47.8673L61.3222 36.593L70.6687 31.9912L62.462 50.3983L69.7568 58.6815L62.0061 62.3629L57.2188 56.3806L52.4316 67.4248L43.541 72.0266L51.0638 55.0001L44.2249 46.4868L51.7477 42.3452Z" fill="white"/>
<path fill-rule="evenodd" clip-rule="evenodd" d="M69.9848 24.6285L69.5289 25.0887L39.2097 40.5046V40.2745L38.0699 75.7082L37.614 76.1683L36.9301 75.7082L35.5623 40.2745L5.47113 25.3188L5.24316 24.6285L5.92705 24.3984L37.614 37.2834L69.0729 24.3984L69.9848 24.6285Z" fill="white"/>
</svg>
