<svg width="32" height="32" viewBox="0 0 32 32" fill="none" xmlns="http://www.w3.org/2000/svg">
<path d="M26.6667 4H5.33341C4.62617 4 3.94789 4.28095 3.4478 4.78105C2.9477 5.28115 2.66675 5.95942 2.66675 6.66667V9.33333C2.66956 9.7987 2.7941 10.2552 3.02801 10.6576C3.26192 11.0599 3.59705 11.394 4.00008 11.6267V25.3333C4.00008 26.0406 4.28103 26.7189 4.78113 27.219C5.28123 27.719 5.9595 28 6.66675 28H25.3334C26.0407 28 26.7189 27.719 27.219 27.219C27.7191 26.7189 28.0001 26.0406 28.0001 25.3333V11.6267C28.4031 11.394 28.7382 11.0599 28.9721 10.6576C29.2061 10.2552 29.3306 9.7987 29.3334 9.33333V6.66667C29.3334 5.95942 29.0525 5.28115 28.5524 4.78105C28.0523 4.28095 27.374 4 26.6667 4ZM5.33341 6.66667H26.6667V9.33333H5.33341V6.66667ZM6.66675 25.3333V12H25.3334V25.3333H6.66675Z" fill="white"/>
<path d="M10.6667 14.6667H21.3334V17.3334H10.6667V14.6667Z" fill="white"/>
</svg>
