<svg width="18" height="14" viewBox="0 0 18 14" fill="none" xmlns="http://www.w3.org/2000/svg">
<path d="M17.2474 7.24966L17.2146 7.18159C16.1346 5.88821 14.531 5.1394 12.8947 5.1394C12.7637 5.1394 12.6983 5.24151 12.6983 5.34362L12.6328 9.73432H1.1783C1.08012 9.76836 0.981934 9.87047 0.981934 9.97258V11.7425C0.981934 11.8786 1.08012 11.9467 1.1783 11.9467H17.8037C17.9346 11.9467 18.0001 11.8446 18.0001 11.7425V9.29185C18.0001 8.54305 17.7383 7.82828 17.2474 7.24966Z" fill="#FBB040"/>
<path d="M10.3418 0H1.66909C0.752727 0 0 0.782837 0 1.73586V7.488C0 8.40699 0.752727 9.18982 1.66909 9.18982H10.3745C11.2909 9.18982 12.0436 8.40699 12.0436 7.45397V1.73586C12.0109 0.782837 11.2582 0 10.3418 0Z" fill="url(#paint0_linear_701_381)"/>
<g clip-path="url(#clip0_701_381)">
<path d="M8.71805 4.20306C8.69181 4.12496 8.61308 4.07289 8.50812 4.07289H7.24856V1.05291C7.24856 0.922741 7.14359 0.818604 7.01239 0.818604H5.0968C4.99184 0.818604 4.88687 0.922741 4.88687 1.05291V4.07289H3.62731C3.54859 4.07289 3.46986 4.12496 3.41738 4.20306C3.39114 4.28116 3.39114 4.3853 3.44362 4.43737L5.83155 7.35321C5.88403 7.40528 5.93651 7.43131 6.01523 7.43131C6.09396 7.43131 6.14644 7.40528 6.19892 7.35321L8.71805 4.43737C8.74429 4.3853 8.77053 4.28116 8.71805 4.20306Z" fill="#FBB040"/>
</g>
<path d="M15.0545 13.4104C15.7774 13.4104 16.3635 12.8009 16.3635 12.049C16.3635 11.297 15.7774 10.6875 15.0545 10.6875C14.3315 10.6875 13.7454 11.297 13.7454 12.049C13.7454 12.8009 14.3315 13.4104 15.0545 13.4104Z" fill="#013177"/>
<path d="M15.0546 13.7167C14.1709 13.7167 13.4836 12.9679 13.4836 12.083C13.4836 11.164 14.2036 10.4492 15.0546 10.4492C15.9382 10.4492 16.6255 11.198 16.6255 12.083C16.6255 12.9679 15.9055 13.7167 15.0546 13.7167ZM15.0546 10.9938C14.4982 10.9938 14.04 11.4703 14.04 12.0489C14.04 12.6276 14.4982 13.1041 15.0546 13.1041C15.6109 13.1041 16.0691 12.6276 16.0691 12.0489C16.0364 11.4703 15.6109 10.9938 15.0546 10.9938Z" fill="#013177"/>
<path d="M17.9018 8.50898C17.7709 8.03247 17.5746 7.58999 17.2473 7.24963L17.2146 7.18155C16.4618 6.29661 15.5127 5.68395 14.4327 5.37762C14.3673 5.34359 14.3018 5.37762 14.2364 5.41166C14.1709 5.4457 14.1382 5.51377 14.1382 5.58184V8.57705C14.1382 8.71319 14.2364 8.78127 14.3345 8.78127H17.6727C17.7382 8.78127 17.8036 8.74723 17.8364 8.67916C17.9018 8.64512 17.9346 8.57705 17.9018 8.50898Z" fill="url(#paint1_linear_701_381)"/>
<path d="M3.53453 13.6825C4.40213 13.6825 5.10545 12.9511 5.10545 12.0488C5.10545 11.1465 4.40213 10.415 3.53453 10.415C2.66694 10.415 1.96362 11.1465 1.96362 12.0488C1.96362 12.9511 2.66694 13.6825 3.53453 13.6825Z" fill="#AD1426"/>
<path d="M15.0546 13.6825C15.9221 13.6825 16.6255 12.9511 16.6255 12.0488C16.6255 11.1465 15.9221 10.415 15.0546 10.415C14.187 10.415 13.4836 11.1465 13.4836 12.0488C13.4836 12.9511 14.187 13.6825 15.0546 13.6825Z" fill="#AD1426"/>
<path d="M3.5346 13.2061C4.14915 13.2061 4.64733 12.688 4.64733 12.0488C4.64733 11.4097 4.14915 10.8916 3.5346 10.8916C2.92006 10.8916 2.42188 11.4097 2.42188 12.0488C2.42188 12.688 2.92006 13.2061 3.5346 13.2061Z" fill="#F7B8BF"/>
<path d="M15.0546 13.2061C15.6692 13.2061 16.1674 12.688 16.1674 12.0488C16.1674 11.4097 15.6692 10.8916 15.0546 10.8916C14.4401 10.8916 13.9419 11.4097 13.9419 12.0488C13.9419 12.688 14.4401 13.2061 15.0546 13.2061Z" fill="#F7B8BF"/>
<defs>
<linearGradient id="paint0_linear_701_381" x1="6.07476" y1="4.64344" x2="6.14353" y2="-0.0731704" gradientUnits="userSpaceOnUse">
<stop stop-color="#F32940"/>
<stop offset="0.963542" stop-color="#FF7787"/>
</linearGradient>
<linearGradient id="paint1_linear_701_381" x1="16.043" y1="7.09045" x2="16.0734" y2="5.33646" gradientUnits="userSpaceOnUse">
<stop stop-color="#F32940"/>
<stop offset="0.963542" stop-color="#FF7787"/>
</linearGradient>
<clipPath id="clip0_701_381">
<rect width="5.35314" height="6.61271" fill="white" transform="translate(3.39111 0.818604)"/>
</clipPath>
</defs>
</svg>
