<svg width="24" height="18" viewBox="0 0 24 18" fill="none" xmlns="http://www.w3.org/2000/svg">
<path d="M22.3091 9.31214L22.2682 9.22705C20.9182 7.61032 18.9136 6.67432 16.8682 6.67432C16.7046 6.67432 16.6227 6.80195 16.6227 6.92959L16.5409 12.418H2.22275C2.10002 12.4605 1.97729 12.5881 1.97729 12.7158V14.9281C1.97729 15.0983 2.10002 15.1834 2.22275 15.1834H23.0045C23.1682 15.1834 23.25 15.0558 23.25 14.9281V11.8649C23.25 10.9289 22.9227 10.0354 22.3091 9.31214Z" fill="#FBB040"/>
<path d="M13.6773 0.25H2.83636C1.69091 0.25 0.75 1.22855 0.75 2.41982V9.61C0.75 10.7587 1.69091 11.7373 2.83636 11.7373H13.7182C14.8636 11.7373 15.8045 10.7587 15.8045 9.56746V2.41982C15.7636 1.22855 14.8227 0.25 13.6773 0.25Z" fill="url(#paint0_linear_701_4319)"/>
<g clip-path="url(#clip0_701_4319)">
<path d="M5.9805 7.55906C5.96089 7.5 5.90207 7.46063 5.82364 7.46063H4.88246V5.17717C4.88246 5.07874 4.80403 5 4.70599 5H3.27462C3.19619 5 3.11776 5.07874 3.11776 5.17717V7.46063H2.17658C2.11775 7.46063 2.05893 7.5 2.01972 7.55906C2.00011 7.61811 2.00011 7.69685 2.03932 7.73622L3.82364 9.94094C3.86285 9.98031 3.90207 10 3.96089 10C4.01972 10 4.05893 9.98031 4.09815 9.94094L5.9805 7.73622C6.00011 7.69685 6.01972 7.61811 5.9805 7.55906Z" fill="#FBB040"/>
</g>
<path d="M19.568 17.013C20.4717 17.013 21.2044 16.2511 21.2044 15.3112C21.2044 14.3713 20.4717 13.6094 19.568 13.6094C18.6643 13.6094 17.9316 14.3713 17.9316 15.3112C17.9316 16.2511 18.6643 17.013 19.568 17.013Z" fill="#013177"/>
<path d="M19.5681 17.3959C18.4636 17.3959 17.6045 16.4599 17.6045 15.3537C17.6045 14.205 18.5045 13.3115 19.5681 13.3115C20.6727 13.3115 21.5318 14.2475 21.5318 15.3537C21.5318 16.4599 20.6318 17.3959 19.5681 17.3959ZM19.5681 13.9923C18.8727 13.9923 18.2999 14.5879 18.2999 15.3112C18.2999 16.0344 18.8727 16.6301 19.5681 16.6301C20.2636 16.6301 20.8363 16.0344 20.8363 15.3112C20.7954 14.5879 20.2636 13.9923 19.5681 13.9923Z" fill="#013177"/>
<path d="M23.1274 10.8864C22.9638 10.2908 22.7183 9.73767 22.3092 9.31222L22.2683 9.22713C21.3274 8.12094 20.141 7.35512 18.791 6.97221C18.7092 6.92967 18.6274 6.97221 18.5456 7.01476C18.4638 7.0573 18.4229 7.14239 18.4229 7.22749V10.9715C18.4229 11.1417 18.5456 11.2268 18.6683 11.2268H22.841C22.9229 11.2268 23.0047 11.1842 23.0456 11.0991C23.1274 11.0566 23.1683 10.9715 23.1274 10.8864Z" fill="url(#paint1_linear_701_4319)"/>
<path d="M5.16823 17.3532C6.25272 17.3532 7.13187 16.4388 7.13187 15.311C7.13187 14.1831 6.25272 13.2688 5.16823 13.2688C4.08374 13.2688 3.20459 14.1831 3.20459 15.311C3.20459 16.4388 4.08374 17.3532 5.16823 17.3532Z" fill="#AD1426"/>
<path d="M19.5681 17.3532C20.6526 17.3532 21.5318 16.4388 21.5318 15.311C21.5318 14.1831 20.6526 13.2688 19.5681 13.2688C18.4836 13.2688 17.6045 14.1831 17.6045 15.311C17.6045 16.4388 18.4836 17.3532 19.5681 17.3532Z" fill="#AD1426"/>
<path d="M5.16825 16.7576C5.93643 16.7576 6.55916 16.11 6.55916 15.3111C6.55916 14.5121 5.93643 13.8645 5.16825 13.8645C4.40008 13.8645 3.77734 14.5121 3.77734 15.3111C3.77734 16.11 4.40008 16.7576 5.16825 16.7576Z" fill="#F7B8BF"/>
<path d="M19.5682 16.7576C20.3363 16.7576 20.9591 16.11 20.9591 15.3111C20.9591 14.5121 20.3363 13.8645 19.5682 13.8645C18.8 13.8645 18.1772 14.5121 18.1772 15.3111C18.1772 16.11 18.8 16.7576 19.5682 16.7576Z" fill="#F7B8BF"/>
<defs>
<linearGradient id="paint0_linear_701_4319" x1="8.34344" y1="6.0543" x2="8.42942" y2="0.158537" gradientUnits="userSpaceOnUse">
<stop stop-color="#F32940"/>
<stop offset="0.963542" stop-color="#FF7787"/>
</linearGradient>
<linearGradient id="paint1_linear_701_4319" x1="20.8039" y1="9.11324" x2="20.8418" y2="6.92076" gradientUnits="userSpaceOnUse">
<stop stop-color="#F32940"/>
<stop offset="0.963542" stop-color="#FF7787"/>
</linearGradient>
<clipPath id="clip0_701_4319">
<rect width="4" height="5" fill="white" transform="translate(2 5)"/>
</clipPath>
</defs>
</svg>
