<svg width="23" height="18" viewBox="0 0 23 18" fill="none" xmlns="http://www.w3.org/2000/svg">
<path d="M21.5591 9.31214L21.5182 9.22705C20.1682 7.61032 18.1636 6.67432 16.1182 6.67432C15.9546 6.67432 15.8727 6.80195 15.8727 6.92959L15.7909 12.418H1.47275C1.35002 12.4605 1.22729 12.5881 1.22729 12.7158V14.9281C1.22729 15.0983 1.35002 15.1834 1.47275 15.1834H22.2545C22.4182 15.1834 22.5 15.0558 22.5 14.9281V11.8649C22.5 10.9289 22.1727 10.0354 21.5591 9.31214Z" fill="#FBB040"/>
<path d="M12.9273 0.25H2.08636C0.940909 0.25 0 1.22855 0 2.41982V9.61C0 10.7587 0.940909 11.7373 2.08636 11.7373H12.9682C14.1136 11.7373 15.0545 10.7587 15.0545 9.56746V2.41982C15.0136 1.22855 14.0727 0.25 12.9273 0.25Z" fill="url(#paint0_linear_765_433)"/>
<g clip-path="url(#clip0_765_433)">
<path opacity="0.9" d="M8.01835 4L4.41284 7.86842L2.99083 6.33882L2 7.40461L4.41284 10L9 5.06579L8.01835 4Z" fill="#FBB040"/>
</g>
<path d="M18.818 17.013C19.7217 17.013 20.4544 16.2511 20.4544 15.3112C20.4544 14.3713 19.7217 13.6094 18.818 13.6094C17.9143 13.6094 17.1816 14.3713 17.1816 15.3112C17.1816 16.2511 17.9143 17.013 18.818 17.013Z" fill="#013177"/>
<path d="M18.8181 17.3959C17.7136 17.3959 16.8545 16.4599 16.8545 15.3537C16.8545 14.205 17.7545 13.3115 18.8181 13.3115C19.9227 13.3115 20.7818 14.2475 20.7818 15.3537C20.7818 16.4599 19.8818 17.3959 18.8181 17.3959ZM18.8181 13.9923C18.1227 13.9923 17.5499 14.5879 17.5499 15.3112C17.5499 16.0344 18.1227 16.6301 18.8181 16.6301C19.5136 16.6301 20.0863 16.0344 20.0863 15.3112C20.0454 14.5879 19.5136 13.9923 18.8181 13.9923Z" fill="#013177"/>
<path d="M22.3774 10.8864C22.2138 10.2908 21.9683 9.73767 21.5592 9.31222L21.5183 9.22713C20.5774 8.12094 19.391 7.35512 18.041 6.97221C17.9592 6.92967 17.8774 6.97221 17.7956 7.01476C17.7138 7.0573 17.6729 7.14239 17.6729 7.22749V10.9715C17.6729 11.1417 17.7956 11.2268 17.9183 11.2268H22.091C22.1729 11.2268 22.2547 11.1842 22.2956 11.0991C22.3774 11.0566 22.4183 10.9715 22.3774 10.8864Z" fill="url(#paint1_linear_765_433)"/>
<path d="M4.41823 17.3532C5.50272 17.3532 6.38187 16.4388 6.38187 15.311C6.38187 14.1831 5.50272 13.2688 4.41823 13.2688C3.33374 13.2688 2.45459 14.1831 2.45459 15.311C2.45459 16.4388 3.33374 17.3532 4.41823 17.3532Z" fill="#AD1426"/>
<path d="M18.8181 17.3532C19.9026 17.3532 20.7818 16.4388 20.7818 15.311C20.7818 14.1831 19.9026 13.2688 18.8181 13.2688C17.7336 13.2688 16.8545 14.1831 16.8545 15.311C16.8545 16.4388 17.7336 17.3532 18.8181 17.3532Z" fill="#AD1426"/>
<path d="M4.41825 16.7576C5.18643 16.7576 5.80916 16.11 5.80916 15.3111C5.80916 14.5121 5.18643 13.8645 4.41825 13.8645C3.65008 13.8645 3.02734 14.5121 3.02734 15.3111C3.02734 16.11 3.65008 16.7576 4.41825 16.7576Z" fill="#F7B8BF"/>
<path d="M18.8182 16.7576C19.5863 16.7576 20.2091 16.11 20.2091 15.3111C20.2091 14.5121 19.5863 13.8645 18.8182 13.8645C18.05 13.8645 17.4272 14.5121 17.4272 15.3111C17.4272 16.11 18.05 16.7576 18.8182 16.7576Z" fill="#F7B8BF"/>
<defs>
<linearGradient id="paint0_linear_765_433" x1="7.59344" y1="6.0543" x2="7.67942" y2="0.158537" gradientUnits="userSpaceOnUse">
<stop stop-color="#F32940"/>
<stop offset="0.963542" stop-color="#FF7787"/>
</linearGradient>
<linearGradient id="paint1_linear_765_433" x1="20.0539" y1="9.11324" x2="20.0918" y2="6.92076" gradientUnits="userSpaceOnUse">
<stop stop-color="#F32940"/>
<stop offset="0.963542" stop-color="#FF7787"/>
</linearGradient>
<clipPath id="clip0_765_433">
<rect width="7" height="6" fill="white" transform="translate(2 4)"/>
</clipPath>
</defs>
</svg>
